# xmcd CD database file
#
# Track frame offsets:
#	150
#	14486
#	30395
#	46652
#	60934
#	75784
#	87737
#	100557
#	114062
#	128549
#	142536
#	156196
#	169926
#	182884
#	196640
#	210255
#	220462
#	232610
#	247166
#	259846
#	272944
#	284589
#	299797
#	311490
#	325285
#	335719
#
# Disc length: 4622 seconds
#
# Revision: 0
# Processed by: cddbd v1.5.2PL0 Copyright (c) Steve Scherf et al.
# Submitted via: CDex 1.84
#
DISCID=66120c1a
DTITLE=Hooker, John Lee - Gotta Boogie Gotta Sing
DYEAR=2017
DGENRE=Blues
TTITLE0=Boogie Chillen
TTITLE1=Boogie Woogie
TTITLE2=Lowdown Midnight Boogie
TTITLE3=Stomp Boogie
TTITLE4=609 Boogie
TTITLE5=Boogie Awhile
TTITLE6=Weeping Willow Boogie
TTITLE7=Hoogie Boogie
TTITLE8=Do The Boogie
TTITLE9=Talkin' Boogie
TTITLE10=Miss Pearl Boogie
TTITLE11=Slim's Stomp
TTITLE12=21 Boogie
TTITLE13=Never Satisfied
TTITLE14=John L's House Rent Boogie
TTITLE15=Boogie Now
TTITLE16=How Can You Do It
TTITLE17=Four Women In My Life
TTITLE18=Leave My Wife Alone
TTITLE19=Rock House Boogie
TTITLE20=Walking The Boogie
TTITLE21=Lonely Boy Boogie
TTITLE22=Pouring Down Rain
TTITLE23=Too Much Boogie
TTITLE24=I'm A Boogie Man
TTITLE25=Gotta Boogie
EXTD=YEAR: 2017
EXTT0=
EXTT1=
EXTT2=
EXTT3=
EXTT4=
EXTT5=
EXTT6=
EXTT7=
EXTT8=
EXTT9=
EXTT10=
EXTT11=
EXTT12=
EXTT13=
EXTT14=
EXTT15=
EXTT16=
EXTT17=
EXTT18=
EXTT19=
EXTT20=
EXTT21=
EXTT22=
EXTT23=
EXTT24=
EXTT25=
PLAYORDER=
